<svg xmlns="http://www.w3.org/2000/svg" xmlns:xlink="http://www.w3.org/1999/xlink" width="500" height="500" viewBox="0 0 1000 1000"><defs><clipPath id="b"><rect width="1000" height="1000"/></clipPath></defs><g id="a" clip-path="url(#b)"><path d="M325,550,0,700V400H0V150L325,0,675,150,1000,0V550L675,700Z" transform="translate(0 200)" fill="#1e90ff"/><path d="M0,700V450L300,311.538v250Zm700-11.537v-250L1000,300V550L700,688.462h0Z" transform="translate(0 200)" fill="#fff"/><path d="M0,400H0V150L300,11.539v250Zm700-11.539h0v-250L1000,0V250Z" transform="translate(0 200)" fill="red"/><path d="M343.869,502.713l-125.5-53.787V410.389a100.438,100.438,0,0,0,54.888-36.107l70.612,29.973v98.457Zm-174.5-74.787L43.87,374.14V276.913L94.964,298.6a101,101,0,0,0-1.094,14.823,99.915,99.915,0,0,0,75.5,96.964v17.535Zm174.5-77.987h0l-51.094-21.688a101.013,101.013,0,0,0,1.1-14.824,99.915,99.915,0,0,0-75.5-96.964V198.925l125.5,53.786v97.228Zm-229.388-97.37h0L43.87,222.6V124.14L163.5,175.412c1.858,2.394,3.831,4.922,5.864,7.515V216.46a100.441,100.441,0,0,0-54.888,36.109Zm229.388-49.857L238.08,157.371C268.165,117.707,310.94,58.209,343.869,0V202.712ZM109.305,102.184h0L43.87,74.139V0C61.383,30.961,83.4,65.339,109.3,102.181h0Z" transform="translate(306.13 386.575)" fill="lime"/><circle cx="50" cy="50" r="50" transform="translate(450 650)" fill="#fff"/><g transform="translate(0 50)"><path d="M150,0A150,150,0,0,1,300,150c0,82.843-150,300-150,300S0,232.843,0,150A150,150,0,0,1,150,0Z" transform="translate(350 50)" fill="red"/><circle cx="75" cy="75" r="75" transform="translate(425 125)" fill="#fff"/></g></g></svg>