<svg xmlns="http://www.w3.org/2000/svg" width="256" height="204.8" viewBox="0 0 256 204.8"><g transform="translate(0 -100)"><path d="M83.2,140.8,0,179.2V102.4H0v-64L83.2,0l89.6,38.4L256,0V140.8l-83.2,38.4Z" transform="translate(0 125.6)" fill="#1e90ff"/><path d="M0,402.4v-64l76.8-35.446v64Zm179.2-2.953v-64L256,300v64l-76.8,35.446h0Z" transform="translate(0 -97.6)" fill="#fff"/><path d="M0,102.4H0v-64L76.8,2.954v64Zm179.2-2.954h0v-64L256,0V64Z" transform="translate(0 125.6)" fill="red"/><path d="M120.67,128.695,88.542,114.925V105.06a25.712,25.712,0,0,0,14.051-9.243l18.077,7.673v25.2ZM76,109.549,43.87,95.78V70.89l13.08,5.552a25.855,25.855,0,0,0-.28,3.795A25.578,25.578,0,0,0,76,105.059v4.489ZM120.67,89.584h0l-13.08-5.552a25.857,25.857,0,0,0,.28-3.795A25.578,25.578,0,0,0,88.542,55.415v-4.49L120.67,64.694v24.89ZM61.946,64.658h0L43.87,56.986V31.78L74.5,44.905c.476.613.981,1.26,1.5,1.924v8.584a25.713,25.713,0,0,0-14.051,9.244ZM120.67,51.894,93.588,40.287C101.29,30.133,112.24,14.9,120.67,0V51.894ZM60.621,26.159h0L43.87,18.98V0c4.483,7.926,10.12,16.727,16.75,26.158h0Z" transform="translate(45.73 173.363)" fill="lime"/><ellipse cx="13" cy="12.5" rx="13" ry="12.5" transform="translate(115 241)" fill="#fff"/><g transform="translate(89.6 100)"><path d="M38.4,0A38.4,38.4,0,0,1,76.8,38.4c0,21.208-38.4,76.8-38.4,76.8S0,59.608,0,38.4A38.4,38.4,0,0,1,38.4,0Z" transform="translate(0 0)" fill="red"/><ellipse cx="19" cy="19.5" rx="19" ry="19.5" transform="translate(19.4 19)" fill="#fff"/></g></g></svg>